<svg width="38.000000" height="20.000000" viewBox="0 0 38 20" fill="none" xmlns="http://www.w3.org/2000/svg" xmlns:xlink="http://www.w3.org/1999/xlink">
	<desc>
			Created with Pixso.
	</desc>
	<defs>
		<clipPath id="clip935_8355">
			<rect id="arrows-up" rx="0.000000" width="19.000000" height="19.000000" transform="matrix(1 0 0 -1 18.5 20.5)" fill="white" fill-opacity="0"/>
		</clipPath>
	</defs>
	<path id="Get Started" d="M0.45 13.46Q0.62 13.59 0.91 13.59Q1.23 13.59 1.39 13.43Q1.56 13.28 1.7 12.93L2.11 11.96L5.41 11.96L5.83 12.93Q5.96 13.27 6.15 13.43Q6.34 13.59 6.67 13.59Q6.95 13.59 7.11 13.46Q7.18 13.41 7.23 13.35Q7.3 13.25 7.32 13.11Q7.36 12.88 7.22 12.62L4.65 7.01Q4.49 6.66 4.27 6.51Q4.21 6.46 4.14 6.43Q3.97 6.35 3.76 6.35Q3.56 6.35 3.39 6.43Q3.32 6.46 3.25 6.51Q3.03 6.66 2.88 7.01L0.31 12.62Q0.19 12.88 0.23 13.1Q0.26 13.23 0.32 13.32Q0.37 13.4 0.45 13.46ZM2.63 10.76L3.75 8.09L3.76 8.09L4.89 10.76L2.63 10.76Z" fill="#FFFFFF" fill-opacity="1.000000" fill-rule="evenodd"/>
	<path id="Get Started" d="M15 13.43Q15.2 13.59 15.52 13.59Q15.86 13.59 16.05 13.42Q16.07 13.4 16.09 13.38Q16.11 13.36 16.12 13.35Q16.29 13.14 16.29 12.78L16.29 7.25Q16.29 6.9 16.12 6.69Q16.1 6.67 16.08 6.65Q16.07 6.64 16.06 6.63Q15.85 6.44 15.48 6.44L13.06 6.44Q12.28 6.44 11.72 6.71Q11.32 6.9 11.06 7.21Q10.96 7.32 10.89 7.45Q10.61 7.93 10.61 8.6Q10.61 9.33 10.94 9.83Q11.07 10.02 11.25 10.18Q11.63 10.52 12.2 10.65Q12.16 10.67 12.13 10.68Q12.02 10.73 11.93 10.79Q11.6 11 11.39 11.41L10.83 12.45Q10.67 12.74 10.71 12.97Q10.74 13.1 10.8 13.21Q10.85 13.29 10.92 13.37Q11.01 13.45 11.11 13.5Q11.21 13.54 11.32 13.56Q11.4 13.58 11.47 13.58Q11.63 13.57 11.78 13.5Q12.01 13.4 12.18 13.11L13.2 11.24Q13.3 11.06 13.42 10.96Q13.44 10.94 13.46 10.93Q13.57 10.85 13.71 10.81Q13.87 10.77 14.07 10.77L14.73 10.77L14.73 12.78Q14.73 13.13 14.91 13.34Q14.92 13.36 14.94 13.38Q14.97 13.4 15 13.43ZM14.73 9.64L13.34 9.64Q12.72 9.64 12.41 9.4Q12.34 9.34 12.28 9.27Q12.09 9.03 12.09 8.64Q12.09 8.28 12.27 8.05Q12.33 7.97 12.41 7.91Q12.72 7.66 13.34 7.66L14.73 7.66L14.73 9.64Z" fill="#FFFFFF" fill-opacity="1.000000" fill-rule="evenodd"/>
	<rect id="arrows-up" rx="0.000000" width="19.000000" height="19.000000" transform="matrix(1 0 0 -1 18.5 20.5)" fill="#FFFFFF" fill-opacity="0"/>
	<g clip-path="url(#clip935_8355)">
		<path id="Icon" d="M32.16 3.33L32.16 12.5M28.83 9.16L32.16 12.5L35.5 9.16" stroke="#FFFFFF" stroke-opacity="0.500000" stroke-width="1.500000" stroke-linejoin="round" stroke-linecap="round"/>
		<path id="Icon" d="M23.83 3.33L23.83 16.66M20.5 13.33L23.83 16.66L27.16 13.33" stroke="#FFC62A" stroke-opacity="1.000000" stroke-width="1.500000" stroke-linejoin="round" stroke-linecap="round"/>
	</g>
</svg>
