<svg width="16.000000" height="16.000000" viewBox="0 0 16 16" fill="none" xmlns="http://www.w3.org/2000/svg" xmlns:xlink="http://www.w3.org/1999/xlink">
	<desc>
			Created with Pixso.
	</desc>
	<defs/>
	<g opacity="0.000000"/>
	<path d="M10.79 1.33L5.2 1.33C2.78 1.33 1.33 2.78 1.33 5.2L1.33 10.78C1.33 13.22 2.78 14.66 5.2 14.66L10.78 14.66C13.21 14.66 14.66 13.22 14.66 10.79L14.66 5.2C14.66 2.78 13.22 1.33 10.79 1.33ZM5.64 7.32C5.84 7.12 6.16 7.12 6.35 7.32L7.5 8.46L7.5 4.34C7.5 4.06 7.72 3.84 8 3.84C8.27 3.84 8.5 4.06 8.5 4.34L8.5 8.46L9.64 7.32C9.84 7.12 10.16 7.12 10.35 7.32C10.54 7.51 10.54 7.83 10.35 8.02L8.35 10.02C8.3 10.07 8.25 10.1 8.19 10.13C8.13 10.16 8.06 10.17 8 10.17C7.93 10.17 7.87 10.16 7.8 10.13C7.74 10.1 7.69 10.07 7.64 10.02L5.64 8.02C5.45 7.83 5.45 7.52 5.64 7.32ZM12.16 11.48C10.82 11.92 9.41 12.15 8 12.15C6.58 12.15 5.18 11.92 3.84 11.48C3.58 11.39 3.44 11.1 3.52 10.84C3.61 10.58 3.89 10.44 4.16 10.53C6.64 11.36 9.36 11.36 11.84 10.53C12.1 10.44 12.39 10.58 12.48 10.84C12.56 11.11 12.42 11.39 12.16 11.48Z" fill="#FFFFFF" fill-opacity="1.000000" fill-rule="nonzero"/>
</svg>
