<svg width="24.000000" height="24.000000" viewBox="0 0 24 24" fill="none" xmlns="http://www.w3.org/2000/svg" xmlns:xlink="http://www.w3.org/1999/xlink">
	<desc>
			Created with Pixso.
	</desc>
	<defs/>
	<rect id="vuesax/bold/music-square-search" rx="0.000000" width="23.000000" height="23.000000" transform="translate(0.500000 0.500000)" fill="#FFFFFF" fill-opacity="0"/>
	<g opacity="0.000000"/>
	<path id="Vector" d="M22.79 21.76L22.06 21.04C22.43 20.48 22.66 19.79 22.66 19.08C22.66 17.1 21.06 15.5 19.08 15.5C17.1 15.5 15.5 17.1 15.5 19.08C15.5 21.06 17.1 22.66 19.08 22.66C19.81 22.66 20.48 22.44 21.04 22.07L21.76 22.79C21.9 22.93 22.09 23 22.27 23C22.46 23 22.64 22.93 22.78 22.79C23.06 22.5 23.06 22.04 22.79 21.76Z" fill="#230B3F" fill-opacity="0.300000" fill-rule="nonzero"/>
	<path id="Vector" d="M12.23 12.07C11.81 12.07 11.49 12.4 11.49 12.81C11.49 13.22 11.81 13.55 12.23 13.55C12.64 13.55 12.97 13.22 12.97 12.81C12.97 12.4 12.64 12.07 12.23 12.07Z" fill="#230B3F" fill-opacity="0.300000" fill-rule="nonzero"/>
	<path id="Vector" d="M6.76 13.06C6.34 13.06 6.02 13.39 6.02 13.8C6.02 14.21 6.34 14.54 6.76 14.54C7.17 14.54 7.5 14.21 7.5 13.8C7.5 13.39 7.17 13.06 6.76 13.06Z" fill="#230B3F" fill-opacity="0.300000" fill-rule="nonzero"/>
	<path id="Vector" d="M16.18 2L7.81 2C7.53 2 7.26 2.01 7 2.04C3.84 2.33 2 4.45 2 7.81L2 16.19C2 19.54 3.84 21.66 7 21.95C7.26 21.99 7.53 22 7.81 22L13.5 22C13.89 22 14.14 21.56 13.99 21.2C13.7 20.51 13.5 19.7 13.5 19C13.5 15.97 15.97 13.5 19 13.5C19.76 13.5 20.5 13.65 21.18 13.95C21.55 14.11 22 13.86 22 13.46L22 7.81C22 4.17 19.83 2 16.18 2ZM14.48 8.04L14.48 12.81C14.48 12.82 14.47 12.83 14.47 12.85C14.45 14.07 13.46 15.06 12.23 15.06C10.99 15.06 9.98 14.05 9.98 12.82C9.98 11.58 11 10.58 12.23 10.58C12.49 10.58 12.74 10.63 12.98 10.72L12.98 9.03L9.01 10.1L9.01 13.81C9.01 13.82 9 13.83 9 13.84C8.97 15.06 7.98 16.04 6.76 16.04C5.52 16.04 4.52 15.03 4.52 13.8C4.52 12.57 5.53 11.56 6.76 11.56C7.02 11.56 7.27 11.61 7.5 11.7L7.5 9.54L7.5 7.79C7.5 6.85 8.07 6.1 8.96 5.87L11.95 5.04C12.88 4.79 13.45 5.04 13.77 5.29C14.23 5.64 14.46 6.2 14.46 6.97L14.46 8.04L14.48 8.04Z" fill="#230B3F" fill-opacity="0.300000" fill-rule="nonzero"/>
</svg>
