<svg width="162" height="25" viewBox="0 0 162 25" fill="none" xmlns="http://www.w3.org/2000/svg">
<rect width="162" height="25" rx="6" fill="black" fill-opacity="0.1"/>
<rect width="162" height="25" rx="6" fill="white" fill-opacity="0.03"/>
<path d="M17.98 5.16666H16.02C15.1733 5.16666 14.6666 5.67332 14.6666 6.51999V8.47999C14.6666 9.32666 15.1733 9.83332 16.02 9.83332H17.98C18.8266 9.83332 19.3333 9.32666 19.3333 8.47999V6.51999C19.3333 5.67332 18.8266 5.16666 17.98 5.16666ZM16.6733 8.87999C16.6533 8.89999 16.6066 8.92666 16.5733 8.92666L15.88 9.02666C15.86 9.03332 15.8333 9.03332 15.8133 9.03332C15.7133 9.03332 15.6266 8.99999 15.5666 8.93332C15.4866 8.85332 15.4533 8.73999 15.4733 8.61999L15.5733 7.92666C15.58 7.89332 15.6 7.84666 15.62 7.82666L16.7533 6.69332C16.7733 6.73999 16.7933 6.79332 16.8133 6.84666C16.84 6.89999 16.8666 6.94666 16.8933 6.99332C16.9133 7.03332 16.94 7.07332 16.9666 7.09999C16.9933 7.13999 17.02 7.17999 17.04 7.19999C17.0533 7.21999 17.06 7.22666 17.0666 7.23332C17.1266 7.30666 17.1933 7.37332 17.2533 7.41999C17.2666 7.43332 17.28 7.44666 17.2866 7.44666C17.32 7.47332 17.36 7.50666 17.3866 7.52666C17.4266 7.55332 17.46 7.57999 17.5 7.59999C17.5466 7.62666 17.6 7.65332 17.6533 7.67999C17.7066 7.70666 17.76 7.72666 17.8066 7.73999L16.6733 8.87999ZM18.2666 7.28666L18.0533 7.49999C18.04 7.51999 18.02 7.52666 18 7.52666C17.9933 7.52666 17.9866 7.52666 17.98 7.52666C17.5 7.38666 17.12 7.00666 16.98 6.52666C16.9733 6.49999 16.98 6.47332 17 6.45332L17.22 6.23332C17.58 5.87332 17.92 5.87999 18.2733 6.23332C18.4533 6.41332 18.54 6.58666 18.54 6.75999C18.5333 6.93332 18.4466 7.10666 18.2666 7.28666Z" fill="white"/>
<path d="M10 11.42C10.8763 11.42 11.5867 10.7096 11.5867 9.83334C11.5867 8.95705 10.8763 8.24667 10 8.24667C9.12371 8.24667 8.41333 8.95705 8.41333 9.83334C8.41333 10.7096 9.12371 11.42 10 11.42Z" fill="white"/>
<path d="M17.98 9.83334H17.6667V12.9067L17.58 12.8333C17.06 12.3867 16.22 12.3867 15.7 12.8333L12.9267 15.2133C12.4067 15.66 11.5667 15.66 11.0467 15.2133L10.82 15.0267C10.3467 14.6133 9.59337 14.5733 9.06004 14.9333L6.56671 16.6067C6.42004 16.2333 6.33337 15.8 6.33337 15.2933V9.70668C6.33337 7.82668 7.32671 6.83334 9.20671 6.83334H14.6667V6.52001C14.6667 6.25334 14.7134 6.02668 14.82 5.83334H9.20671C6.78004 5.83334 5.33337 7.28001 5.33337 9.70668V15.2933C5.33337 16.02 5.46004 16.6533 5.70671 17.1867C6.28004 18.4533 7.50671 19.1667 9.20671 19.1667H14.7934C17.22 19.1667 18.6667 17.72 18.6667 15.2933V9.68001C18.4734 9.78668 18.2467 9.83334 17.98 9.83334Z" fill="white"/>
<path d="M26.9588 8.27273H28.2628V14.6818H28.3438L32.7841 8.27273H34.0028V17H32.6861V10.5994H32.6051L28.1733 17H26.9588V8.27273ZM35.1936 15.2699H36.4976C36.5146 15.5369 36.6354 15.7429 36.8598 15.8878C37.0871 16.0327 37.3811 16.1051 37.7419 16.1051C38.1084 16.1051 38.4209 16.027 38.6794 15.8707C38.9379 15.7116 39.0672 15.4659 39.0672 15.1335C39.0672 14.9347 39.0175 14.7614 38.918 14.6136C38.8214 14.4631 38.6837 14.3466 38.5047 14.2642C38.3285 14.1818 38.1197 14.1406 37.8783 14.1406H36.8129V13.1392H37.8783C38.239 13.1392 38.5089 13.0568 38.6879 12.892C38.8669 12.7273 38.9564 12.5213 38.9564 12.2741C38.9564 12.0071 38.8598 11.7926 38.6666 11.6307C38.4763 11.4659 38.2106 11.3835 37.8697 11.3835C37.5231 11.3835 37.2348 11.4616 37.0047 11.6179C36.7746 11.7713 36.6538 11.9702 36.6425 12.2145H35.3555C35.364 11.848 35.4748 11.527 35.6879 11.2514C35.9038 10.973 36.1936 10.7571 36.5572 10.6037C36.9237 10.4474 37.3399 10.3693 37.8058 10.3693C38.2916 10.3693 38.7121 10.4474 39.0672 10.6037C39.4223 10.7599 39.6964 10.9759 39.8896 11.2514C40.0856 11.527 40.1837 11.8437 40.1837 12.2017C40.1837 12.5625 40.0757 12.858 39.8598 13.0881C39.6467 13.3153 39.3683 13.4787 39.0246 13.5781V13.6463C39.2774 13.6634 39.5018 13.7401 39.6979 13.8764C39.8939 14.0128 40.0473 14.1932 40.1581 14.4176C40.2689 14.642 40.3243 14.8963 40.3243 15.1804C40.3243 15.581 40.2135 15.9276 39.9919 16.2202C39.7731 16.5128 39.4692 16.7386 39.08 16.8977C38.6936 17.054 38.2518 17.1321 37.7547 17.1321C37.2717 17.1321 36.8385 17.0568 36.455 16.9062C36.0743 16.7528 35.7717 16.5369 35.5473 16.2585C35.3257 15.9801 35.2078 15.6506 35.1936 15.2699ZM45.0733 15.4233L47.1869 10.4545H48.2863L45.5463 17H44.6003L41.9156 10.4545H43.0022L45.0733 15.4233ZM42.6486 10.4545V17H41.4V10.4545H42.6486ZM47.5321 17V10.4545H48.7721V17H47.5321ZM53.0513 17.1321C52.4064 17.1321 51.851 16.9943 51.3851 16.7188C50.922 16.4403 50.5641 16.0497 50.3113 15.5469C50.0613 15.0412 49.9363 14.4489 49.9363 13.7699C49.9363 13.0994 50.0613 12.5085 50.3113 11.9972C50.5641 11.4858 50.9164 11.0866 51.3681 10.7997C51.8226 10.5128 52.3539 10.3693 52.9618 10.3693C53.3311 10.3693 53.6891 10.4304 54.0357 10.5526C54.3823 10.6747 54.6934 10.8665 54.9689 11.1278C55.2445 11.3892 55.4618 11.7287 55.6209 12.1463C55.78 12.5611 55.8595 13.0653 55.8595 13.6591V14.1108H50.6564V13.1562H54.611C54.611 12.821 54.5428 12.5241 54.4064 12.2656C54.2701 12.0043 54.0783 11.7983 53.8311 11.6477C53.5868 11.4972 53.2999 11.4219 52.9703 11.4219C52.6124 11.4219 52.2999 11.5099 52.0328 11.6861C51.7686 11.8594 51.5641 12.0866 51.4192 12.3679C51.2772 12.6463 51.2061 12.9489 51.2061 13.2756V14.0213C51.2061 14.4588 51.2828 14.831 51.4363 15.1378C51.5925 15.4446 51.8098 15.679 52.0882 15.8409C52.3666 16 52.6919 16.0795 53.0641 16.0795C53.3056 16.0795 53.5257 16.0455 53.7246 15.9773C53.9235 15.9062 54.0953 15.8011 54.2402 15.6619C54.3851 15.5227 54.4959 15.3509 54.5726 15.1463L55.7786 15.3636C55.682 15.7187 55.5087 16.0298 55.2587 16.2969C55.0115 16.5611 54.7005 16.767 54.3255 16.9148C53.9533 17.0597 53.5286 17.1321 53.0513 17.1321ZM61.4693 13.1776V14.2812H57.9239V13.1776H61.4693ZM58.2818 10.4545V17H57.0333V10.4545H58.2818ZM62.36 10.4545V17H61.1156V10.4545H62.36ZM65.0731 15.2145L67.958 10.4545H69.3302V17H68.0816V12.2358L65.2094 17H63.8245V10.4545H65.0731V15.2145ZM69.9915 11.554V10.4545H75.5142V11.554H73.3792V17H72.1349V11.554H69.9915ZM77.5807 12.7045H79.4812C80.2824 12.7045 80.8988 12.9034 81.3307 13.3011C81.7625 13.6989 81.9784 14.2116 81.9784 14.8395C81.9784 15.2486 81.8818 15.6165 81.6886 15.9432C81.4954 16.2699 81.2128 16.5284 80.8406 16.7188C80.4684 16.9062 80.0153 17 79.4812 17H76.6218V10.4545H77.8704V15.9006H79.4812C79.8477 15.9006 80.1488 15.8054 80.3846 15.6151C80.6204 15.4219 80.7383 15.1761 80.7383 14.8778C80.7383 14.5625 80.6204 14.3054 80.3846 14.1065C80.1488 13.9048 79.8477 13.804 79.4812 13.804H77.5807V12.7045ZM88.9195 19.2287V8.27273H90.1937V19.2287H88.9195ZM88.9195 17.1321C88.4565 17.1321 88.0346 17.0526 87.6539 16.8935C87.2732 16.7315 86.9451 16.5014 86.6695 16.2031C86.394 15.9048 86.1809 15.5483 86.0303 15.1335C85.8826 14.7187 85.8088 14.2599 85.8088 13.7571C85.8088 13.2486 85.8826 12.7869 86.0303 12.3722C86.1809 11.9574 86.394 11.6009 86.6695 11.3026C86.9451 11.0043 87.2732 10.7741 87.6539 10.6122C88.0346 10.4503 88.4565 10.3693 88.9195 10.3693H89.2349V17.1321H88.9195ZM88.9195 16.0582H89.0985V11.4432H88.9195C88.6127 11.4432 88.3457 11.5057 88.1184 11.6307C87.8911 11.7528 87.7022 11.9219 87.5516 12.1378C87.4011 12.3509 87.2874 12.5966 87.2107 12.875C87.1369 13.1534 87.0999 13.4474 87.0999 13.7571C87.0999 14.1719 87.1667 14.554 87.3002 14.9034C87.4338 15.25 87.6355 15.5298 87.9053 15.7429C88.1752 15.9531 88.5133 16.0582 88.9195 16.0582ZM90.1937 17.1321H89.8741V10.3693H90.1937C90.6568 10.3693 91.0786 10.4503 91.4593 10.6122C91.84 10.7741 92.1667 11.0043 92.4394 11.3026C92.715 11.6009 92.9266 11.9574 93.0744 12.3722C93.2249 12.7869 93.3002 13.2486 93.3002 13.7571C93.3002 14.2599 93.2249 14.7187 93.0744 15.1335C92.9266 15.5483 92.715 15.9048 92.4394 16.2031C92.1667 16.5014 91.84 16.7315 91.4593 16.8935C91.0786 17.0526 90.6568 17.1321 90.1937 17.1321ZM90.1937 16.0582C90.5005 16.0582 90.7676 15.9986 90.9948 15.8793C91.2221 15.7571 91.411 15.5895 91.5616 15.3764C91.7122 15.1605 91.8244 14.9148 91.8982 14.6392C91.9721 14.3608 92.009 14.0668 92.009 13.7571C92.009 13.3452 91.9423 12.9645 91.8088 12.6151C91.6781 12.2628 91.4778 11.9801 91.2079 11.767C90.938 11.5511 90.5999 11.4432 90.1937 11.4432H90.0105V16.0582H90.1937ZM97.2332 17.1321C96.6195 17.1321 96.084 16.9915 95.6266 16.7102C95.1692 16.429 94.8141 16.0355 94.5613 15.5298C94.3085 15.0241 94.182 14.4332 94.182 13.7571C94.182 13.0781 94.3085 12.4844 94.5613 11.9759C94.8141 11.4673 95.1692 11.0724 95.6266 10.7912C96.084 10.5099 96.6195 10.3693 97.2332 10.3693C97.8468 10.3693 98.3823 10.5099 98.8397 10.7912C99.2971 11.0724 99.6522 11.4673 99.905 11.9759C100.158 12.4844 100.284 13.0781 100.284 13.7571C100.284 14.4332 100.158 15.0241 99.905 15.5298C99.6522 16.0355 99.2971 16.429 98.8397 16.7102C98.3823 16.9915 97.8468 17.1321 97.2332 17.1321ZM97.2374 16.0625C97.6352 16.0625 97.9647 15.9574 98.2261 15.7472C98.4874 15.5369 98.6806 15.2571 98.8056 14.9077C98.9335 14.5582 98.9974 14.1733 98.9974 13.7528C98.9974 13.3352 98.9335 12.9517 98.8056 12.6023C98.6806 12.25 98.4874 11.9673 98.2261 11.7543C97.9647 11.5412 97.6352 11.4347 97.2374 11.4347C96.8369 11.4347 96.5045 11.5412 96.2403 11.7543C95.9789 11.9673 95.7843 12.25 95.6565 12.6023C95.5315 12.9517 95.469 13.3352 95.469 13.7528C95.469 14.1733 95.5315 14.5582 95.6565 14.9077C95.7843 15.2571 95.9789 15.5369 96.2403 15.7472C96.5045 15.9574 96.8369 16.0625 97.2374 16.0625ZM100.678 11.554V10.4545H106.201V11.554H104.066V17H102.822V11.554H100.678ZM109.761 17.1321C109.147 17.1321 108.612 16.9915 108.154 16.7102C107.697 16.429 107.342 16.0355 107.089 15.5298C106.836 15.0241 106.71 14.4332 106.71 13.7571C106.71 13.0781 106.836 12.4844 107.089 11.9759C107.342 11.4673 107.697 11.0724 108.154 10.7912C108.612 10.5099 109.147 10.3693 109.761 10.3693C110.375 10.3693 110.91 10.5099 111.368 10.7912C111.825 11.0724 112.18 11.4673 112.433 11.9759C112.686 12.4844 112.812 13.0781 112.812 13.7571C112.812 14.4332 112.686 15.0241 112.433 15.5298C112.18 16.0355 111.825 16.429 111.368 16.7102C110.91 16.9915 110.375 17.1321 109.761 17.1321ZM109.765 16.0625C110.163 16.0625 110.493 15.9574 110.754 15.7472C111.015 15.5369 111.208 15.2571 111.333 14.9077C111.461 14.5582 111.525 14.1733 111.525 13.7528C111.525 13.3352 111.461 12.9517 111.333 12.6023C111.208 12.25 111.015 11.9673 110.754 11.7543C110.493 11.5412 110.163 11.4347 109.765 11.4347C109.365 11.4347 109.032 11.5412 108.768 11.7543C108.507 11.9673 108.312 12.25 108.184 12.6023C108.059 12.9517 107.997 13.3352 107.997 13.7528C107.997 14.1733 108.059 14.5582 108.184 14.9077C108.312 15.2571 108.507 15.5369 108.768 15.7472C109.032 15.9574 109.365 16.0625 109.765 16.0625ZM118.179 10.4545V11.554H115.251V17H113.994V10.4545H118.179ZM119.286 19.4545V10.4545H120.53V11.5156H120.636C120.71 11.3793 120.817 11.2216 120.956 11.0426C121.095 10.8636 121.288 10.7074 121.536 10.5739C121.783 10.4375 122.109 10.3693 122.516 10.3693C123.044 10.3693 123.516 10.5028 123.93 10.7699C124.345 11.0369 124.671 11.4219 124.906 11.9247C125.145 12.4276 125.264 13.0327 125.264 13.7401C125.264 14.4474 125.146 15.054 124.911 15.5597C124.675 16.0625 124.351 16.4503 123.939 16.723C123.527 16.9929 123.057 17.1278 122.528 17.1278C122.131 17.1278 121.805 17.0611 121.553 16.9276C121.303 16.794 121.107 16.6378 120.965 16.4588C120.823 16.2798 120.713 16.1207 120.636 15.9815H120.56V19.4545H119.286ZM120.534 13.7273C120.534 14.1875 120.601 14.5909 120.734 14.9375C120.868 15.2841 121.061 15.5554 121.314 15.7514C121.567 15.9446 121.877 16.0412 122.243 16.0412C122.624 16.0412 122.942 15.9403 123.198 15.7386C123.453 15.5341 123.646 15.2571 123.777 14.9077C123.911 14.5582 123.977 14.1648 123.977 13.7273C123.977 13.2955 123.912 12.9077 123.781 12.5639C123.653 12.2202 123.46 11.9489 123.202 11.75C122.946 11.5511 122.627 11.4517 122.243 11.4517C121.874 11.4517 121.561 11.5469 121.305 11.7372C121.053 11.9276 120.861 12.1932 120.73 12.5341C120.6 12.875 120.534 13.2727 120.534 13.7273ZM128.357 17.1449C127.942 17.1449 127.567 17.0682 127.232 16.9148C126.896 16.7585 126.631 16.5327 126.435 16.2372C126.242 15.9418 126.145 15.5795 126.145 15.1506C126.145 14.7812 126.216 14.4773 126.358 14.2386C126.5 14 126.692 13.8111 126.933 13.6719C127.175 13.5327 127.445 13.4276 127.743 13.3565C128.041 13.2855 128.345 13.2315 128.655 13.1946C129.047 13.1491 129.365 13.1122 129.61 13.0838C129.854 13.0526 130.031 13.0028 130.142 12.9347C130.253 12.8665 130.308 12.7557 130.308 12.6023V12.5724C130.308 12.2003 130.203 11.9119 129.993 11.7074C129.786 11.5028 129.476 11.4006 129.064 11.4006C128.635 11.4006 128.297 11.4957 128.05 11.6861C127.806 11.8736 127.637 12.0824 127.543 12.3125L126.345 12.0398C126.487 11.642 126.695 11.321 126.967 11.0767C127.243 10.8295 127.56 10.6506 127.918 10.5398C128.276 10.4261 128.652 10.3693 129.047 10.3693C129.308 10.3693 129.585 10.4006 129.878 10.4631C130.173 10.5227 130.449 10.6335 130.705 10.7955C130.963 10.9574 131.175 11.1889 131.34 11.4901C131.504 11.7884 131.587 12.1761 131.587 12.6534V17H130.342V16.1051H130.291C130.209 16.2699 130.085 16.4318 129.921 16.5909C129.756 16.75 129.544 16.8821 129.286 16.9872C129.027 17.0923 128.717 17.1449 128.357 17.1449ZM128.634 16.1222C128.986 16.1222 129.287 16.0526 129.537 15.9134C129.79 15.7741 129.982 15.5923 130.112 15.3679C130.246 15.1406 130.313 14.8977 130.313 14.6392V13.7955C130.267 13.8409 130.179 13.8835 130.048 13.9233C129.921 13.9602 129.774 13.9929 129.61 14.0213C129.445 14.0469 129.284 14.071 129.128 14.0938C128.972 14.1136 128.841 14.1307 128.736 14.1449C128.489 14.1761 128.263 14.2287 128.058 14.3026C127.857 14.3764 127.695 14.483 127.573 14.6222C127.453 14.7585 127.394 14.9403 127.394 15.1676C127.394 15.483 127.51 15.7216 127.743 15.8835C127.976 16.0426 128.273 16.1222 128.634 16.1222ZM135.861 19.2287V8.27273H137.135V19.2287H135.861ZM135.861 17.1321C135.398 17.1321 134.976 17.0526 134.595 16.8935C134.214 16.7315 133.886 16.5014 133.611 16.2031C133.335 15.9048 133.122 15.5483 132.971 15.1335C132.824 14.7187 132.75 14.2599 132.75 13.7571C132.75 13.2486 132.824 12.7869 132.971 12.3722C133.122 11.9574 133.335 11.6009 133.611 11.3026C133.886 11.0043 134.214 10.7741 134.595 10.6122C134.976 10.4503 135.398 10.3693 135.861 10.3693H136.176V17.1321H135.861ZM135.861 16.0582H136.04V11.4432H135.861C135.554 11.4432 135.287 11.5057 135.06 11.6307C134.832 11.7528 134.643 11.9219 134.493 12.1378C134.342 12.3509 134.229 12.5966 134.152 12.875C134.078 13.1534 134.041 13.4474 134.041 13.7571C134.041 14.1719 134.108 14.554 134.241 14.9034C134.375 15.25 134.577 15.5298 134.846 15.7429C135.116 15.9531 135.454 16.0582 135.861 16.0582ZM137.135 17.1321H136.815V10.3693H137.135C137.598 10.3693 138.02 10.4503 138.4 10.6122C138.781 10.7741 139.108 11.0043 139.381 11.3026C139.656 11.6009 139.868 11.9574 140.015 12.3722C140.166 12.7869 140.241 13.2486 140.241 13.7571C140.241 14.2599 140.166 14.7187 140.015 15.1335C139.868 15.5483 139.656 15.9048 139.381 16.2031C139.108 16.5014 138.781 16.7315 138.4 16.8935C138.02 17.0526 137.598 17.1321 137.135 17.1321ZM137.135 16.0582C137.442 16.0582 137.709 15.9986 137.936 15.8793C138.163 15.7571 138.352 15.5895 138.503 15.3764C138.653 15.1605 138.765 14.9148 138.839 14.6392C138.913 14.3608 138.95 14.0668 138.95 13.7571C138.95 13.3452 138.883 12.9645 138.75 12.6151C138.619 12.2628 138.419 11.9801 138.149 11.767C137.879 11.5511 137.541 11.4432 137.135 11.4432H136.952V16.0582H137.135ZM142.666 15.2145L145.551 10.4545H146.923V17H145.674V12.2358L142.802 17H141.417V10.4545H142.666V15.2145ZM151.69 13.2244V14.3324H148.2V13.2244H151.69ZM149.235 10.4545V17H147.961V10.4545H149.235ZM153.684 17.1321C153.076 17.1321 152.545 16.9901 152.091 16.706C151.636 16.4219 151.284 16.027 151.034 15.5213C150.784 15.0128 150.659 14.4233 150.659 13.7528C150.659 13.0767 150.784 12.4858 151.034 11.9801C151.284 11.4716 151.636 11.0767 152.091 10.7955C152.545 10.5114 153.076 10.3693 153.684 10.3693C154.295 10.3693 154.826 10.5114 155.278 10.7955C155.733 11.0767 156.085 11.4716 156.335 11.9801C156.588 12.4858 156.714 13.0767 156.714 13.7528C156.714 14.4233 156.588 15.0128 156.335 15.5213C156.085 16.027 155.733 16.4219 155.278 16.706C154.826 16.9901 154.295 17.1321 153.684 17.1321ZM153.684 16.0412C154.096 16.0412 154.433 15.9375 154.694 15.7301C154.958 15.5199 155.153 15.2415 155.278 14.8949C155.403 14.5483 155.466 14.1676 155.466 13.7528C155.466 13.3352 155.403 12.9531 155.278 12.6065C155.153 12.2571 154.958 11.9773 154.694 11.767C154.433 11.5568 154.096 11.4517 153.684 11.4517C153.275 11.4517 152.939 11.5568 152.674 11.767C152.41 11.9773 152.216 12.2571 152.091 12.6065C151.966 12.9531 151.903 13.3352 151.903 13.7528C151.903 14.1676 151.966 14.5483 152.091 14.8949C152.216 15.2415 152.41 15.5199 152.674 15.7301C152.939 15.9375 153.275 16.0412 153.684 16.0412Z" fill="white"/>
</svg>
